<!-- instagram.svg -->
<svg xmlns="http://www.w3.org/2000/svg" viewBox="0 0 24 24" fill="white" width="24" height="24">
  <path d="M12 2.2c3.2 0 3.6 0 4.9.1 1.2.1 2 .3 2.5.5a4.6 4.6 0 0 1 1.7 1.1 4.6 4.6 0 0 1 1.1 1.7c.2.5.4 1.3.5 2.5.1 1.3.1 1.7.1 4.9s0 3.6-.1 4.9c-.1 1.2-.3 2-.5 2.5a4.6 4.6 0 0 1-1.1 1.7 4.6 4.6 0 0 1-1.7 1.1c-.5.2-1.3.4-2.5.5-1.3.1-1.7.1-4.9.1s-3.6 0-4.9-.1c-1.2-.1-2-.3-2.5-.5a4.6 4.6 0 0 1-1.7-1.1 4.6 4.6 0 0 1-1.1-1.7c-.2-.5-.4-1.3-.5-2.5-.1-1.3-.1-1.7-.1-4.9s0-3.6.1-4.9c.1-1.2.3-2 .5-2.5a4.6 4.6 0 0 1 1.1-1.7 4.6 4.6 0 0 1 1.7-1.1c.5-.2 1.3-.4 2.5-.5 1.3-.1 1.7-.1 4.9-.1zm0 1.8c-3.1 0-3.5 0-4.8.1-1.1.1-1.8.3-2.2.5a2.9 2.9 0 0 0-1.1.7c-.3.3-.5.6-.7 1.1-.2.4-.4 1.1-.5 2.2-.1 1.3-.1 1.7-.1 4.8s0 3.5.1 4.8c.1 1.1.3 1.8.5 2.2.2.5.4.8.7 1.1.3.3.6.5 1.1.7.4.2 1.1.4 2.2.5 1.3.1 1.7.1 4.8.1s3.5 0 4.8-.1c1.1-.1 1.8-.3 2.2-.5.5-.2.8-.4 1.1-.7.3-.3.5-.6.7-1.1.2-.4.4-1.1.5-2.2.1-1.3.1-1.7.1-4.8s0-3.5-.1-4.8c-.1-1.1-.3-1.8-.5-2.2a2.9 2.9 0 0 0-.7-1.1 2.9 2.9 0 0 0-1.1-.7c-.4-.2-1.1-.4-2.2-.5-1.3-.1-1.7-.1-4.8-.1zm0 3.8a5.9 5.9 0 1 1 0 11.8 5.9 5.9 0 0 1 0-11.8zm0 1.8a4.1 4.1 0 1 0 0 8.2 4.1 4.1 0 0 0 0-8.2zm5.6-2a1.3 1.3 0 1 1 0 2.6 1.3 1.3 0 0 1 0-2.6z"/>
</svg>
