<svg data-v-0dd9719b="" version="1.0" xmlns="http://www.w3.org/2000/svg" xmlns:xlink="http://www.w3.org/1999/xlink" width="6800.000000000001" height="5000" viewBox="0 0 340.000000 250.000000" preserveAspectRatio="xMidYMid meet" color-interpolation-filters="sRGB" style="margin: auto;"> <rect data-v-0dd9719b="" x="0" y="0" width="100%" height="100%" fill="#FFFFFF" fill-opacity="1" class="background"></rect>  <g data-v-0dd9719b="" fill="#333333" class="icon-text-wrapper icon-svg-group iconsvg" transform="translate(46.5,90.3227310180664)"><g class="iconsvg-imagesvg" transform="translate(0,0)" fill="#333333"><g fill="#333333"><rect fill="#333333" fill-opacity="0" stroke-width="2px" x="0" y="0" width="60" height="69.35454041057888" class="image-rect"></rect> <svg x="0" y="0" width="60" height="69.35454041057888" filtersec="colorsb6546704581" class="image-svg-svg primary" style="overflow: visible;" fill="#333333"><svg xmlns="http://www.w3.org/2000/svg" viewBox="0 0.06392049789428711 86.42005920410156 99.89383697509766" fill="#333333"><g fill-rule="evenodd" fill="#333333"><path d="M69.75 23.71c-5.32-1.75-10.82.53-14.37 5.57C54 24.87 57.26 20 60.36 22a3 3 0 0 0-1.36-.9 10.77 10.77 0 0 1 9.78 1.58c-3-3.35-7.58-3.3-11.54-1.64 1-3.75 5.54-5.8 6.89-3a2.44 2.44 0 0 0-.6-1.14 9 9 0 0 1 5.25 3.63 10.54 10.54 0 0 1 1.16-8.11 3 3 0 0 0 .49 1.5c-1.27-3.46 4.23-5.58 8.24-3.32-5.67 2.36-9.09 7.22-8.55 12.78.15-4.54 2.15-7.92 5.62-9.93a3 3 0 0 0-.32 1.59c.62-3.73 6.59-2.84 9 1.2-6.32-.77-11.88 1.9-14.15 7.26a9.33 9.33 0 0 1 8.11-4.9 2.4 2.4 0 0 0-.85 1c2-2.38 5.88.69 6 4.57-4.22-3.11-9.27-3.48-13.09-.61a44.19 44.19 0 0 1 5.62 5.66c-.23.29-.44.59-.64.9a10.37 10.37 0 0 1 .85-.63c.85 1.05 1.66 2.14 2.41 3.27q-.39.35-.75.72c.3-.16.61-.31.92-.45.72 1.12 1.4 2.28 2 3.47a7.85 7.85 0 0 0-.76.52c.3-.1.6-.18.9-.25.63 1.23 1.2 2.5 1.72 3.79a9.46 9.46 0 0 0-1.67.65 12.09 12.09 0 0 1 1.9-.09 41 41 0 0 1 1.28 4 9.89 9.89 0 0 0-2.69.39 11.37 11.37 0 0 1 3 .54A41.72 41.72 0 0 1 86 50.92a10 10 0 0 0-4.27.28 11.33 11.33 0 0 1 4.47 1.15 41.82 41.82 0 0 1 .22 4.35c0 1.13 0 2.24-.13 3.34-15.94-7.65-28.63-3.78-43.94 1.96l-2.6-1.9a62.39 62.39 0 0 0-18-9.35L38 35.09l9.86 9.51-4.32 7.73 21.8-21c7.54 7.29 10.89 8.27 13.7 19.07A43 43 0 0 0 70 24.08c-4.79.66-8.13 4.53-8.88 9.76-2.7-2.8-2.14-7.73.93-7.47a2.37 2.37 0 0 0-1.28-.07 9.32 9.32 0 0 1 9.08-2.37l-.07-.09" fill="#F18318"></path><path d="M83.81 71.41C69.91 44.1 27.05 84 1.93 69.43c12.83 28.68 52-10.57 81.87 2" fill="#6FA8DC"></path><path d="M10.07 84.52c17.52 18.77 41.6-9.63 68.17-2.58-15.68-21-41.8 8.17-68.18 2.58" fill="#6FA8DC"></path><path d="M74.74 86.26C54.08 82.64 43.8 97.54 27.16 96.87A43.25 43.25 0 0 0 74.75 86.3" fill="#6FA8DC"></path><path d="M36.72 64.07a57.27 57.27 0 0 0-19.09-9.35 56.49 56.49 0 0 0-7.29-1.52q-.84-.12-1.68-.2a40.56 40.56 0 0 1 20-34.83c5.48 1.16 9.2 5.85 10 12 3.39-3.36 2.8-9.45-1-9.15a3.13 3.13 0 0 1 1.65-.07 11.11 11.11 0 0 0-9.45-3.36c5.23-2.71 13 3 15.93 7.27 1.76-5.38-2.15-11.49-6-9.06a3.59 3.59 0 0 1 1.74-1c-4.92-1.7-7.7-.26-12.16 1.27 3.8-3.16 9.15-3.59 14.31-1.31-1.15-4.9-6.68-7.52-8.37-4.09A3 3 0 0 1 36 9.2a10.88 10.88 0 0 0-6.54 4.34 12.92 12.92 0 0 0-1.23-10 3.66 3.66 0 0 1-.66 1.89c1.7-4.23-5-7-10-4.29 6.72 3 10.76 8.75 10.21 15.35l-.14.05c-.19-5.33-2.55-9.34-6.63-11.81a3.63 3.63 0 0 1 .37 2c-.62-4.62-8-3.69-11 1.22 7.55-.77 14.13 2.42 16.92 8.69l-.12.05a11.31 11.31 0 0 0-9.52-5.68 3 3 0 0 1 1.06 1.26c-2.35-3-7.24.64-7.44 5.41 5-3.55 10.86-4 15.39-.9-1.22.51-2.4 1.08-3.55 1.7a13.79 13.79 0 0 1 .65 1.87 16.7 16.7 0 0 0-1.2-1.57A43.46 43.46 0 0 0 17.64 22a15 15 0 0 1 1.17 2 18.63 18.63 0 0 0-1.77-1.56 43.28 43.28 0 0 0-4.28 3.84 14.43 14.43 0 0 1 1.47 1.73 15.34 15.34 0 0 0-2-1.2 43.53 43.53 0 0 0-3.8 4.65 14.82 14.82 0 0 1 2.67 2 16.14 16.14 0 0 0-3.86-.56 42.82 42.82 0 0 0-2.94 5.15A14.79 14.79 0 0 1 8 39.84a16.63 16.63 0 0 0-4.32-.51 42.89 42.89 0 0 0-2.11 5.92 14.68 14.68 0 0 1 4.92 2.15 16.55 16.55 0 0 0-5.35-.4 44.7 44.7 0 0 0-.93 5.69C.07 54 0 55.42 0 56.8a43.83 43.83 0 0 0 .46 6.32C9.41 68 18 69.11 28.14 66.72a84.64 84.64 0 0 0 8.58-2.61" fill="#26BCAD"></path></g></svg></svg> <!----></g></g> <g transform="translate(67,3.9582691192626953)" fill="#333333"><g data-gra="path-name" fill-rule="" class="tp-name iconsvg-namesvg" transform="translate(0,0)" fill="#333333"><g transform="scale(1)" fill="#333333"><g fill="#333333"><path d="M29.92-37.28L3.91-37.28 1.83-16.71 22.6-16.71 21.43-5.23 0-5.23 0.71 0 26.11 0 28.39-21.94 7.72-21.94 8.74-32.05 24.13-32.05 23.82-29.15 29.05-29.15 29.92-37.28ZM50.64-25.95L56.88-25.95 46.02-16.25 56.28 0 50.43 0 42.26-12.95 35.96-7.31 35.2 0 29.92 0 33.83-37.28 39.11-37.28 36.62-13.51 50.64-25.95ZM66.53-7.16L75.32-25.9 80.5-25.9 64.1 9.29 58.81 9.35 63.18 0 62.93 0 56.88-25.9 62.22-25.9 66.53-7.16ZM80.5 0L83.19-25.9 111.48-25.9 108.69 0 103.41 0 105.59-20.62 99.5-20.62 97.26 0 91.98 0 94.16-20.62 88.02-20.62 85.78 0 80.5 0ZM111.48 0L114.23-25.9 138.2-25.9 136.22-7.57 135.91 0 131.29 0 131.19-2.59 125.81 0 111.48 0ZM119-20.62L117.33-5.23 126.31-5.23 130.94-7.62 132.26-20.62 119-20.62ZM144.35-20.67L142.16 0 152.22 0 154-5.23 148-5.23 149.68-20.67 156.48-20.67 157.04-25.95 150.24-25.95 150.9-32.61 145.62-32.61 144.9-25.95 138.76-25.95 138.2-20.67 144.35-20.67ZM160.34-25.9L180-25.9 179.44-20.62 164.2-5.23 178.17-5.23 177.61 0 157.04 0 157.6-5.23 172.84-20.62 159.79-20.62 160.34-25.9Z" transform="translate(0, 37.279998779296875)" fill="#333333"></path></g> <!----> <!----> <!----> <!----> <!----> <!----> <!----></g></g> <g data-gra="path-slogan" fill-rule="" class="tp-slogan iconsvg-slogansvg" fill="#333333" transform="translate(5,52.62999725341797)"><rect x="0" height="1" y="3.9050002098083496" width="59.78000068664551" fill="#333333"></rect> <rect height="1" y="3.9050002098083496" width="59.78000068664551" x="110.21999931335449" fill="#333333"></rect> <g transform="translate(62.78000068664551,0)" fill="#333333"><g transform="scale(1)" fill="#333333"><path d="M3.23-7.57L2.42 0L3.70 0L4.49-7.57L7.49-7.57L7.60-8.81L0.37-8.81L0.24-7.57L3.23-7.57ZM8.53-8.81L14.74-8.81L14.16-3.44L12.85-3.44L14.05 0L12.78 0L11.59-3.44L9.22-3.44L8.86 0L7.60 0L8.53-8.81ZM9.35-4.68L13.04-4.68L13.36-7.57L9.65-7.57L9.35-4.68ZM23.27 0L21.89 0L21.25-2.26L17.24-2.26L16.14 0L14.74 0L19.07-8.81L20.80-8.81L23.27 0ZM19.79-7.46L17.84-3.49L20.90-3.49L19.79-7.46ZM26.65-2.80L29.90-8.81L31.30-8.81L26.51 0L26.20 0L23.27-8.81L24.66-8.81L26.65-2.80ZM32.23-8.81L31.30 0L37.24 0L37.66-1.24L32.68-1.24L32.99-4.03L37.21-4.03L37.34-5.28L33.11-5.28L33.35-7.57L38.20-7.57L38.33-8.81L32.23-8.81ZM39.26-8.81L38.33 0L44.24 0L44.68-1.24L39.72-1.24L40.51-8.81L39.26-8.81Z" transform="translate(-0.24, 8.808)" fill="#333333"></path></g></g></g></g></g><defs v-gra="od"></defs></svg>